# xmcd
#
# Track frame offsets: 
#        150
#        10892
#        25557
#        38290
#        53890
#        73122
#        82710
#        94112
#        107415
#        116237
#        134387
#
# Disc length: 1961 seconds
#
# Revision: 6
# Processed by: cddbd v1.5.2PL0 Copyright (c) Steve Scherf et al.
# Submitted via: ExactAudioCopy v1.3
#
DISCID=7c07a70b
DTITLE=The Animals - Animal Tracks [Remastered 1999]
DYEAR=1965
DGENRE=Blues
TTITLE0=Mess Around
TTITLE1=How You've Changed
TTITLE2=Hallelujah I Love Her So
TTITLE3=I Believe To My Soul
TTITLE4=Worried Life Blues
TTITLE5=Roberta
TTITLE6=I Ain't Got You
TTITLE7=Bright Lights Big City
TTITLE8=Let The Good Times Roll
TTITLE9=For Miss Caulker
TTITLE10=Roadrunner
EXTD=1965 EMI Records Ltd 1999 EMI Records Ltd.
EXTT0=
EXTT1=
EXTT2=
EXTT3=
EXTT4=
EXTT5=
EXTT6=
EXTT7=
EXTT8=
EXTT9=
EXTT10=
PLAYORDER=
